<?xml version="1.0" standalone="no"?>
<!DOCTYPE svg PUBLIC "-//W3C//DTD SVG 1.1//EN" "http://www.w3.org/Graphics/SVG/1.1/DTD/svg11.dtd" >
<svg xmlns="http://www.w3.org/2000/svg">
<metadata>Generated by IcoMoon</metadata>
<defs>
<font id="rings" horiz-adv-x="1024">
<font-face units-per-em="1024" ascent="960" descent="-64" />
<missing-glyph horiz-adv-x="1024" />
<glyph unicode="&#x20;" horiz-adv-x="512" d="" />
<glyph unicode="&#xe900;" glyph-name="wedding-ring" d="M699.385 649.359c-69.742 0-134.414-22.114-187.386-59.69-27.144 19.254-57.363 34.442-89.762 44.68l83.486 110.233c5.274 6.965 5.868 17.092 1.444 24.623l-67.568 115.029c-4.025 6.851-12.387 11.637-20.331 11.637h-192.788c-8.078 0-16.459-4.93-20.381-11.992l-64.312-115.765c-4.142-7.448-3.501-17.442 1.56-24.304l81.287-110.23c-130.217-42.259-224.632-164.72-224.632-308.836 0-178.994 145.624-324.618 324.615-324.618 69.742 0 134.414 22.114 187.386 59.69 52.969-37.576 117.642-59.69 187.386-59.69 178.994 0 324.615 145.624 324.615 324.618-0.003 178.994-145.624 324.615-324.618 324.615zM512.001 172.843c-33.712 41.51-53.952 94.382-53.952 151.9 0 57.516 20.237 110.391 53.952 151.9 33.712-41.51 53.949-94.382 53.949-151.9s-20.237-110.391-53.949-151.9zM83.28 324.744c0 133.074 108.264 241.335 241.335 241.335 45.554 0 88.197-12.692 124.587-34.717-46.473-56.173-74.433-128.191-74.433-206.618s27.96-150.449 74.433-206.618c-36.391-22.025-79.033-34.717-124.587-34.717-133.071 0-241.335 108.262-241.335 241.335zM699.385 83.409c-45.554 0-88.197 12.692-124.587 34.717 46.473 56.173 74.433 128.191 74.433 206.618s-27.96 150.446-74.433 206.618c36.391 22.025 79.033 34.717 124.587 34.717 133.074 0 241.335-108.264 241.335-241.335 0-133.074-108.262-241.335-241.335-241.335z" />
<glyph unicode="&#xe901;" glyph-name="wedding-ring-1" d="M820.956 613.83c21.208 13.228 35.359 36.762 35.359 63.547 0 41.275-33.581 74.853-74.853 74.853-32.25 0-59.804-20.504-70.311-49.159-22.341 12.489-45.958 22.949-70.613 31.123 13.313 22.348 20.987 48.429 20.987 76.279 0.003 82.451-67.077 149.528-149.524 149.528s-149.528-67.077-149.528-149.528c0-27.85 7.677-53.931 20.987-76.279-24.655-8.173-48.272-18.631-70.613-31.123-10.504 28.658-38.057 49.159-70.311 49.159-41.275 0-74.853-33.578-74.853-74.853 0-26.785 14.152-50.319 35.359-63.547-62.561-71.921-100.487-165.805-100.487-268.389 0-225.767 183.674-409.441 409.441-409.441s409.441 183.674 409.441 409.441c0.003 102.58-37.926 196.468-100.484 268.389zM512.002 34.594c-171.402 0-310.847 139.445-310.847 310.847s139.445 310.847 310.847 310.847c171.399 0 310.847-139.445 310.847-310.847s-139.448-310.847-310.847-310.847z" />
<glyph unicode="&#xe902;" glyph-name="wedding-ring-2" d="M733.798 651.716c2.22 9.585 2.195 19.558-0.066 29.135 15.859 2.56 30.483 9.982 42.064 21.562 30.053 30.053 30.053 78.952 0 109.002-14.559 14.559-33.915 22.577-54.503 22.577-20.59 0-39.946-8.018-54.503-22.574-14.559-14.556-22.577-33.912-22.577-54.503 0-10.805 2.229-21.257 6.43-30.868-8.802-3.121-16.893-8.12-23.691-14.918-1.941-1.941-3.677-4.007-5.316-6.125-9.642 2.81-19.433 5.267-29.366 7.342 0.091 1.576 0.154 3.164 0.154 4.763 0 24.392-10.931 46.265-28.132 61.027 27.713 17.444 46.183 48.292 46.183 83.387 0 54.3-44.176 98.476-98.476 98.476s-98.476-44.176-98.476-98.476c0-35.095 18.467-65.944 46.183-83.387-17.201-14.761-28.132-36.634-28.132-61.027 0-1.599 0.060-3.187 0.154-4.763-9.93-2.075-19.724-4.532-29.366-7.342-1.639 2.118-3.375 4.187-5.316 6.128-6.798 6.798-14.89 11.797-23.691 14.915 4.201 9.611 6.43 20.066 6.43 30.868 0 20.59-8.018 39.946-22.577 54.5-14.556 14.559-33.912 22.577-54.503 22.577-20.587 0-39.943-8.018-54.503-22.577-30.053-30.050-30.053-78.949 0-109.005 11.581-11.581 26.205-19.003 42.064-21.559-2.26-9.577-2.286-19.55-0.066-29.135-102.9-70.789-170.511-189.345-170.511-323.407 0-216.32 175.989-392.309 392.309-392.309s392.309 175.989 392.309 392.309c-0.003 134.065-67.611 252.618-170.511 323.407zM512 21.508c-169.171 0-306.802 137.63-306.802 306.802s137.63 306.802 306.802 306.802 306.802-137.63 306.802-306.802-137.633-306.802-306.802-306.802z" />
<glyph unicode="&#xe903;" glyph-name="wedding-ring-3" d="M938.917 649.516c0 80.911-65.827 146.738-146.735 146.738-35.58 0-68.237-12.737-93.666-33.88 0.204 3.571 0.335 7.161 0.335 10.779-0.003 103.027-83.82 186.847-186.85 186.847-103.027 0-186.847-83.82-186.847-186.847 0-3.621 0.13-7.211 0.335-10.782-25.43 21.143-58.086 33.883-93.666 33.883-80.911 0-146.738-65.827-146.738-146.738 0-40.174 16.24-76.615 42.484-103.142-26.805-55.751-41.896-118.158-41.896-184.043 0-235.080 191.251-426.331 426.331-426.331s426.331 191.251 426.331 426.331c0 65.886-15.088 128.293-41.896 184.043 26.241 26.526 42.478 62.968 42.478 103.142zM792.182 703.331c29.67 0 53.812-24.141 53.812-53.815s-24.141-53.815-53.812-53.815c-29.673 0-53.815 24.141-53.815 53.815s24.141 53.815 53.815 53.815zM512 867.077c51.792 0 93.924-42.134 93.924-93.924s-42.134-93.924-93.924-93.924c-51.789 0-93.924 42.134-93.924 93.924s42.134 93.924 93.924 93.924zM231.821 703.331c29.673 0 53.815-24.141 53.815-53.815s-24.141-53.815-53.815-53.815c-29.673 0-53.815 24.141-53.815 53.815s24.138 53.815 53.815 53.815zM512 28.923c-183.842 0-333.408 149.566-333.408 333.408 0 50.773 11.451 98.907 31.842 142.021 6.985-1.025 14.121-1.577 21.385-1.577 78.635 0 143.002 62.178 146.564 139.948 33.951-34.775 81.292-56.423 133.617-56.423s99.663 21.648 133.617 56.42c3.562-77.77 67.93-139.948 146.564-139.948 7.263 0 14.4 0.551 21.385 1.577 20.39-43.113 31.842-91.247 31.842-142.021 0-183.839-149.566-333.405-333.408-333.405z" />
<glyph unicode="&#xe904;" glyph-name="wedding-ring-4" d="M790.878 547.845c19.146 11.94 31.917 33.184 31.917 57.361 0 37.257-30.309 67.566-67.566 67.566-29.114 0-53.985-18.508-63.466-44.373-27.001 15.097-56.070 26.915-86.682 34.886 1.587 1.299 3.159 2.596 4.702 3.877 32.042 26.604 75.486 66.833 92.473 92.663 12.718 19.339 27.049 46.515 24.969 85.35-3.441 64.389-55.35 114.826-118.169 114.826-45.723 0-77.863-35.061-95.128-53.896-0.495-0.54-1.009-1.101-1.531-1.667-0.050 0.056-0.101 0.116-0.148 0.169-15.788 17.98-48.636 55.394-97.308 55.394-62.819 0-114.725-50.437-118.172-114.826-1.623-30.36 6.081-56.685 24.975-85.356 16.832-25.545 60.517-65.81 92.811-92.529 1.557-1.287 3.142-2.59 4.743-3.898-30.751-7.971-59.948-19.831-87.062-34.99-9.481 25.868-34.352 44.373-63.466 44.373-37.257 0-67.566-30.309-67.566-67.566 0-24.177 12.774-45.421 31.917-57.361-56.471-64.92-90.705-149.665-90.705-242.262 0-203.789 165.794-369.583 369.583-369.583s369.583 165.794 369.583 369.58c0 92.597-34.237 177.342-90.705 242.262zM512 24.996c-154.717 0-280.587 125.87-280.587 280.587s125.87 280.587 280.587 280.587 280.587-125.87 280.587-280.587-125.87-280.587-280.587-280.587z" />
<glyph unicode="&#xe905;" glyph-name="wedding-ring-5" d="M796.622 560.444c19.54 12.186 32.574 33.867 32.574 58.542 0 38.024-30.933 68.957-68.957 68.957-29.713 0-55.097-18.889-64.773-45.287-25.344 14.169-52.472 25.517-80.971 33.573l91.74 121.135c5.752 7.596 6.4 18.638 1.574 26.855l-72.306 123.085c-4.387 7.475-13.506 12.695-22.174 12.695h-206.396c-8.81 0-17.954-5.38-22.229-13.079l-68.821-123.881c-4.514-8.123-3.815-19.023 1.705-26.501l89.285-121.075c-27.536-8.005-53.777-19.074-78.337-32.804-9.676 26.401-35.060 45.287-64.773 45.287-38.024 0-68.957-30.933-68.957-68.957 0-24.675 13.037-46.356 32.574-58.542-57.634-66.257-92.573-152.747-92.573-247.251 0-207.986 169.208-377.194 377.194-377.194s377.194 169.208 377.194 377.194c-0.003 94.501-34.942 180.991-92.573 247.248zM511.998 26.829c-157.903 0-286.365 128.462-286.365 286.365s128.462 286.365 286.365 286.365 286.365-128.462 286.365-286.365-128.462-286.365-286.365-286.365z" />
<glyph unicode="&#xe906;" glyph-name="wedding-ring-6" d="M644.133 674.852l81.851 108.073c5.814 7.678 6.466 18.841 1.588 27.143l-80.535 137.107c-4.437 7.549-13.654 12.825-22.412 12.825h-229.381c-8.905 0-18.146-5.438-22.467-13.22l-76.661-137.992c-4.563-8.21-3.856-19.227 1.723-26.788l79.675-108.046c-144.044-54.488-246.75-193.823-246.75-356.717 0-210.216 171.022-381.238 381.238-381.238s381.238 171.022 381.238 381.238c-0.003 163.782-103.823 303.763-249.106 357.614zM511.998 27.803c-159.596 0-289.435 129.839-289.435 289.435 0 159.593 129.839 289.432 289.435 289.432s289.435-129.839 289.435-289.432c0-159.596-129.839-289.435-289.435-289.435z" />
<glyph unicode="&#xe907;" glyph-name="wedding-ring-7" d="M677.397 755.945l70.592 61.13c4.88 4.223 7.788 10.092 8.199 16.531s-1.74 12.627-6.041 17.425l-87.928 98.164c-5.784 6.462-15.5 10.805-24.175 10.805h-256.709c-8.846 0-18.627-4.534-24.342-11.281l-83.589-98.675c-8.408-9.918-7.339-25.010 2.373-33.644l68.908-61.281c-152.336-65.192-259.342-216.562-259.342-392.462 0-235.26 191.397-426.658 426.658-426.658s426.658 191.397 426.658 426.658c0 176.644-107.904 328.551-261.26 393.288zM512 38.74c-178.61 0-323.918 145.308-323.918 323.918 0 178.606 145.308 323.914 323.918 323.914 178.606 0 323.918-145.308 323.918-323.914 0-178.61-145.312-323.918-323.918-323.918z" />
<glyph unicode="&#xe908;" glyph-name="wedding-ring-8" d="M512.137 655.944c13 0 38.065 15.337 74.505 45.593 25.167 20.892 56.625 50.162 69.434 69.642 9.71 14.763 20.651 35.527 19.060 65.278-2.646 49.457-42.551 88.199-90.845 88.199-34.431 0-58.574-25.409-71.946-39.977-12.686 14.338-37.040 39.977-72.631 39.977-48.291 0-88.197-38.742-90.845-88.202-1.61-30.139 10.11-51.695 19.068-65.286 19.79-30.042 115.41-115.224 144.2-115.224zM699.385 620.575c-69.742 0-134.414-22.114-187.383-59.687-52.969 37.576-117.642 59.687-187.383 59.687-178.994 0-324.618-145.624-324.618-324.615s145.624-324.615 324.615-324.615c69.742 0 134.414 22.111 187.383 59.687 52.969-37.576 117.642-59.687 187.383-59.687 178.994 0 324.615 145.621 324.615 324.615s-145.621 324.615-324.613 324.615zM512.001 144.062c-33.712 41.51-53.952 94.382-53.952 151.898s20.237 110.391 53.952 151.9c33.712-41.51 53.952-94.382 53.952-151.9s-20.24-110.391-53.952-151.898zM83.28 295.959c0 133.074 108.264 241.338 241.335 241.338 45.554 0 88.197-12.692 124.587-34.717-46.473-56.173-74.433-128.191-74.433-206.618s27.96-150.446 74.433-206.618c-36.391-22.025-79.033-34.717-124.587-34.717-133.071-0.003-241.335 108.259-241.335 241.332zM699.385 54.624c-45.552 0-88.197 12.692-124.587 34.717 46.473 56.173 74.433 128.191 74.433 206.618s-27.96 150.449-74.433 206.618c36.391 22.025 79.033 34.717 124.587 34.717 133.074 0 241.335-108.264 241.335-241.338s-108.264-241.332-241.335-241.332z" />
<glyph unicode="&#xe909;" glyph-name="wedding-ring-9" d="M626.863 632.737l85.981 113.528c6.227 8.226 5.328 20.321-2.056 27.535l-182.333 178.1c-3.829 3.737-10.94 8.099-18.393 8.099-7.537 0-14.662-4.463-18.474-8.283l-178.559-178.961c-7.284-7.298-8.16-19.060-2.039-27.357l83.715-113.522c-139.866-48.669-240.529-181.819-240.529-338.056 0-197.303 160.519-357.822 357.825-357.822s357.825 160.519 357.825 357.822c0 157.15-101.827 290.959-242.962 338.918zM512 22.165c-149.795 0-271.66 121.866-271.66 271.658 0 149.795 121.866 271.66 271.66 271.66s271.66-121.866 271.66-271.66c0-149.792-121.866-271.658-271.66-271.658z" />
<glyph unicode="&#xe90a;" glyph-name="wedding-ring-10" d="M860.954 697.816c-93.929 41.665-217.853 64.611-348.952 64.611s-255.026-22.947-348.952-64.611c-105.145-46.639-163.049-112.925-163.049-186.644s57.904-140.004 163.046-186.644c42.359-18.79 90.832-33.757 143.299-44.545 0.367-0.497 0.743-1.015 1.105-1.495 18.253-24.274 65.597-62.523 100.59-87.899 35.866-26.009 83.052-57.011 104.159-57.011 36.968 0 173.658 104.003 204.358 144.921 0.362 0.483 0.729 0.992 1.093 1.484 52.47 10.788 100.946 25.758 143.304 44.548 105.142 46.639 163.046 112.925 163.046 186.644s-57.907 140.001-163.046 186.641zM741.999 375.084c-10.811 54.324-62.806 95.051-124.69 95.051-48.334 0-82.82-32.974-101.348-50.688-1.145-1.093-2.38-2.276-3.575-3.401-0.674 0.671-1.354 1.348-1.993 1.987-16.942 16.913-52.198 52.105-103.702 52.105-61.884 0-113.879-40.728-124.69-95.051-119.337 31.941-195.236 85.929-195.236 136.085 0 77.646 181.854 164.489 425.233 164.489s425.233-86.84 425.233-164.489c0.003-50.159-75.899-104.144-195.233-136.088z" />
<glyph unicode="&#xe90b;" glyph-name="wedding-ring-11" d="M613.555 687.802c37.279 31.057 73.599 67.319 85.918 86.060 11.8 17.942 25.097 43.168 23.168 79.261-3.204 59.93-51.543 106.877-110.039 106.877-42.67 0-72.456-32.495-88.459-49.952-0.022-0.025-0.046-0.049-0.068-0.074-15.051 17.109-45.094 50.025-89.316 50.025-58.496 0-106.828-46.947-110.035-106.877-1.505-28.219 5.641-52.667 23.174-79.273 14.774-22.421 51.826-57.009 80.954-81.467-171.204-38.077-299.605-191.13-299.605-373.631 0-211.051 171.702-382.752 382.752-382.752s382.752 171.702 382.752 382.752c0 175.898-119.28 324.441-281.196 369.050zM511.998 28.167c-160.227 0-290.585 130.355-290.585 290.585 0 160.227 130.358 290.582 290.585 290.582s290.585-130.355 290.585-290.582c0-160.227-130.355-290.585-290.585-290.585z" />
<glyph unicode="&#xe90c;" glyph-name="wedding-ring-12" d="M699.385 676.006c-69.742 0-134.417-22.114-187.386-59.69-35.93 25.489-77.242 43.861-121.872 53.044 26.986 22.369 53.208 48.602 62.363 62.524 8.664 13.178 18.43 31.716 17.009 58.318-2.373 44.311-38.142 79.022-81.434 79.022-29.889 0-50.981-21.12-63.126-34.259-11.618 12.975-32.923 34.259-63.773 34.259-43.289 0-79.058-34.711-81.431-79.027-1.438-26.961 9.025-46.201 17.017-58.324 11.246-17.067 39.142-42.912 61.497-61.411 0.425-0.35 0.824-0.677 1.244-1.022-147.889-30.236-259.49-161.355-259.49-318.050 0-178.994 145.621-324.615 324.615-324.615 69.742 0 134.417 22.114 187.386 59.69 52.969-37.576 117.644-59.69 187.386-59.69 178.994 0 324.615 145.624 324.615 324.615-0.003 178.994-145.624 324.615-324.618 324.615zM512.001 199.49c-33.712 41.51-53.952 94.382-53.952 151.898 0 57.519 20.237 110.391 53.952 151.9 33.712-41.51 53.952-94.382 53.952-151.9-0.003-57.516-20.24-110.388-53.952-151.898zM83.28 351.391c0 133.074 108.262 241.338 241.335 241.338 45.554 0 88.197-12.692 124.587-34.717-46.473-56.173-74.433-128.191-74.433-206.618s27.96-150.446 74.433-206.618c-36.391-22.025-79.036-34.717-124.587-34.717-133.074-0.003-241.335 108.259-241.335 241.332zM699.385 110.056c-45.554 0-88.197 12.692-124.587 34.717 46.473 56.173 74.433 128.191 74.433 206.618s-27.96 150.449-74.433 206.618c36.391 22.025 79.036 34.717 124.587 34.717 133.074 0 241.335-108.264 241.335-241.338 0-133.071-108.262-241.332-241.335-241.332z" />
<glyph unicode="&#xe90d;" glyph-name="wedding-ring-13" d="M680.068 652.342c7.414 6.125 12.146 15.386 12.146 25.73v29.443c0 18.398-14.97 33.368-33.368 33.368h-19.663l80.372 98.321c6.561 8.030 6.692 20.248 0.3 28.424l-63.994 81.773c-4.957 6.34-13.699 10.599-21.747 10.599h-247.628c-8.212 0-17-4.438-21.874-11.039l-60.861-82.422c-6.094-8.254-5.876-20.066 0.516-28.084l77.696-97.572h-16.805c-18.398 0-33.368-14.97-33.368-33.368v-29.443c0-10.344 4.732-19.605 12.146-25.73-124.278-61.968-209.856-190.378-209.856-338.423 0-208.384 169.535-377.919 377.922-377.919s377.922 169.535 377.922 377.919c0 148.046-85.58 276.455-209.856 338.423zM512.002 27.004c-158.205 0-286.918 128.71-286.918 286.915 0 158.208 128.713 286.918 286.918 286.918s286.918-128.71 286.918-286.918c0-158.205-128.713-286.915-286.918-286.915z" />
<glyph unicode="&#xe90e;" glyph-name="wedding-ring-14" d="M889.552 552.761l16.436 63.234c2.209 8.486-0.578 18.74-6.778 24.927l-68.745 68.748c-4.657 4.661-11.625 7.445-18.627 7.445-2.292 0-4.52-0.303-6.613-0.903l-62.328-17.807c-9.033-2.583-16.323-10.872-17.721-20.16l-6.197-40.999c-23.324 15.138-48.395 27.801-74.847 37.605l81.851 108.073c5.814 7.681 6.466 18.847 1.591 27.143l-80.535 137.098c-4.434 7.555-13.651 12.834-22.415 12.834h-229.381c-8.905 0-18.146-5.438-22.467-13.22l-76.661-137.992c-4.563-8.21-3.856-19.227 1.723-26.788l79.675-108.046c-25.582-9.676-49.861-22.020-72.493-36.709l-6.194 40.993c-1.402 9.29-8.691 17.583-17.724 20.163l-62.328 17.807c-2.096 0.6-4.321 0.903-6.613 0.903-7.005 0-13.963-2.782-18.624-7.442l-68.748-68.745c-6.197-6.194-8.987-16.445-6.781-24.921l16.439-63.24c2.421-9.321 10.775-16.751 20.319-18.073l40.448-5.585c-40.684-60.633-64.452-133.527-64.452-211.871 0-210.216 171.022-381.238 381.238-381.238s381.238 171.022 381.238 381.238c0 78.344-23.765 151.239-64.452 211.871l40.454 5.585c9.532 1.322 17.883 8.749 20.31 18.070zM511.998 27.803c-159.596 0-289.435 129.839-289.435 289.435 0 159.593 129.839 289.432 289.435 289.432 159.593 0 289.435-129.839 289.435-289.432 0-159.596-129.839-289.435-289.435-289.435z" />
<glyph unicode="&#xe90f;" glyph-name="wedding-ring-15" d="M776.914 512.431c11.691 10.357 23.889 23.897 36.558 40.647 17.725 23.432 47.461 69.018 47.461 111.010 0 72.115-60.979 130.787-135.93 130.787-13.804 0-27.129-2.004-39.691-5.701 0.199 2.764 0.328 5.516 0.328 8.252 0 89.641-76.067 162.574-169.565 162.574s-169.565-72.933-169.565-162.577c0-2.733 0.132-5.488 0.342-8.254-12.565 3.7-25.893 5.704-39.703 5.704-74.951 0-135.93-58.669-135.93-130.787 0-39.607 26.529-82.384 48.781-111.296 11.618-15.093 22.019-26.661 31.28-35.582-54.995-61.73-88.47-143.033-88.47-232.018 0-192.545 156.646-349.192 349.192-349.192s349.192 156.646 349.192 349.192c-0.003 86.707-31.776 166.12-84.279 227.242zM776.847 664.088c0-19.362-30.122-63.577-51.208-84.697-21.641 21.747-52.484 66.148-52.484 84.697 0 25.75 23.258 46.701 51.845 46.701s51.847-20.951 51.847-46.701zM516.074 875.914c47.133 0 85.479-35.212 85.479-78.491 0-13.305-9.936-42.808-37.934-82.174-18.174-25.551-35.736-43.669-46.867-53.095-29.040 25.226-86.157 98.871-86.157 135.269-0.003 43.279 38.343 78.491 85.479 78.491zM307.146 710.786c28.586 0 51.845-20.951 51.845-46.701 0-19.362-30.122-63.577-51.208-84.697-21.641 21.747-52.484 66.148-52.484 84.697 0.003 25.753 23.261 46.701 51.847 46.701zM511.999 20.086c-146.178 0-265.106 118.925-265.106 265.106 0 146.178 118.928 265.103 265.106 265.103s265.106-118.925 265.106-265.103c0-146.18-118.925-265.106-265.106-265.106z" />
<glyph unicode="&#xe910;" glyph-name="wedding-ring-16" d="M755.826 534.894c27.207 18.673 44.972 49.086 44.972 83.393 0 33.396-26.919 73.353-42.962 94.195-9.816 12.753-43.509 54.361-64.939 54.361-5.138 0-10.777-2.063-16.548-5.401 3.265 12.041 5.216 24.163 5.216 35.98 0 89.644-76.067 162.577-169.564 162.577s-169.564-72.933-169.564-162.577c0-12.030 2.122-24.427 5.645-36.765-6.029 3.792-11.853 6.186-16.977 6.186-23.135 0-56.455-41.678-66.117-54.454-12.562-16.613-41.785-59.034-41.785-94.103 0-34.307 17.762-64.721 44.972-83.393-64.962-63.448-105.362-151.94-105.362-249.703 0-192.545 156.646-349.191 349.191-349.191s349.191 156.646 349.191 349.191c-0.003 97.764-40.403 186.255-105.368 249.703zM512 875.914c47.133 0 85.479-35.212 85.479-78.491 0-13.305-9.936-42.808-37.934-82.174-18.174-25.551-35.736-43.668-46.867-53.094-29.040 25.226-86.157 98.871-86.157 135.271 0 43.276 38.343 78.488 85.479 78.488zM512 20.086c-146.177 0-265.105 118.928-265.105 265.105s118.928 265.105 265.105 265.105 265.105-118.928 265.105-265.105-118.928-265.105-265.105-265.105z" />
<glyph unicode="&#xe911;" glyph-name="wedding-ring-17" d="M670.665 612.276c6.999 5.782 11.467 14.525 11.467 24.291v27.793c0 14.697-10.132 27.040-23.767 30.502l52.868 118.721c3.843 8.64 1.455 19.411-5.685 25.619l-130.706 113.541c-5.006 4.339-12.815 7.257-19.434 7.257h-83.606c-6.584 0-14.373-2.875-19.388-7.157l-133.842-114.4c-7.34-6.266-9.682-17.151-5.576-25.886l55.094-117.172c-14.86-2.523-26.221-15.456-26.221-31.023v-27.793c0-9.766 4.468-18.509 11.467-24.291-117.327-58.504-198.12-179.732-198.12-319.496 0-196.731 160.052-356.783 356.783-356.783s356.783 160.052 356.783 356.783c0 139.764-80.793 260.992-198.117 319.493zM512 21.914c-149.355 0-270.869 121.514-270.869 270.869s121.514 270.869 270.869 270.869 270.869-121.514 270.869-270.869-121.511-270.869-270.869-270.869z" />
<glyph unicode="&#xe912;" glyph-name="wedding-ring-18" d="M783.986 574.718c29.146 4.653 60.974 14.488 78.091 31.609 17.29 17.29 26.426 40.606 25.72 65.644-0.694 24.718-10.935 48.188-28.828 66.081-18.614 18.614-43.020 28.868-68.716 28.868-24.021 0-46.397-9.148-63.009-25.76-20.834-20.837-28.898-61.997-31.848-84.68-0.445-3.414-0.948-7.746-1.375-12.61-35.58 19.674-74.644 33.781-116.025 41.108 10.135 11.268 18.008 21.41 21.152 25.572 16.042 21.21 53.355 75.335 53.355 119.724-0.003 71.53-61.176 129.726-136.372 129.726s-136.369-58.196-136.369-129.726c0-43.826 38.367-98.399 54.861-119.827 3.056-3.968 10.469-13.392 19.98-24.039-41.523-6.364-80.826-19.538-116.764-38.313-0.324 3.153-0.663 5.995-0.972 8.382-2.95 22.682-11.014 63.842-31.848 84.68-16.612 16.612-38.988 25.76-63.009 25.76-25.696 0-50.102-10.254-68.716-28.868-17.893-17.893-28.135-41.363-28.828-66.081-0.706-25.039 8.43-48.354 25.72-65.644 15.742-15.742 43.926-25.321 71.021-30.382-65.932-67.98-106.592-160.605-106.592-262.56 0-208.090 169.292-377.382 377.379-377.382s377.382 169.292 377.382 377.382c0.006 101.343-40.157 193.471-105.39 261.336zM512 26.874c-157.979 0-286.505 128.526-286.505 286.508 0 157.979 128.526 286.505 286.505 286.505 157.982 0 286.508-128.526 286.508-286.505 0-157.982-128.529-286.508-286.508-286.508z" />
<glyph unicode="&#xe913;" glyph-name="wedding-ring-19" d="M585.424 627.536c12.242 13.691 21.807 26.026 25.627 31.078 19.584 25.891 65.127 91.888 65.127 145.438 0 85.989-73.648 155.949-164.178 155.949s-164.178-69.96-164.178-155.949c0-52.829 46.834-119.373 66.968-145.534 2.492-3.239 12.442-15.989 25.571-30.595-158.559-33.146-278.019-174.012-278.019-342.268 0-192.802 156.855-349.655 349.658-349.655s349.658 156.855 349.658 349.655c0 167.624-118.568 308.053-276.234 341.881zM512 20.198c-146.373 0-265.46 119.084-265.46 265.457 0 146.376 119.087 265.46 265.46 265.46s265.46-119.084 265.46-265.46c0-146.37-119.087-265.457-265.46-265.457z" />
<glyph unicode="&#xe914;" glyph-name="wedding-ring-20" d="M762.544 594.706c7.528 8.512 13.615 16.291 17.042 20.823 14.091 18.631 46.867 66.203 46.867 105.46 0 68.531-61.272 68.531-110.506 68.531h-20.444c-3.702 0-7.477-0.003-11.285-0.033 6.62 18.353 10.903 37.259 10.903 55.491 0 39.287 0 76.395-35.697 98.686-26.171 16.337-61.066 16.337-124.412 16.337h-46.022c-63.346 0-98.238 0-124.418-16.349-35.697-22.291-35.697-59.405-35.697-98.695 0-18.135 4.441-37.050 11.291-55.473-3.938 0.030-7.843 0.036-11.672 0.036h-20.444c-49.234 0-110.506 0-110.506-68.531 0-37.377 30.194-82.18 48.19-105.56 3.375-4.386 9.278-11.82 16.515-20.014-78.063-69.142-127.364-170.062-127.364-282.3 0-207.939 169.172-377.111 377.114-377.111s377.114 169.172 377.114 377.111c0.003 111.853-48.965 212.467-126.567 281.592zM419.946 867.429c15.858 1.762 45.868 1.762 69.043 1.762h46.022c23.175 0 53.184 0 69.046-1.759 0.26-6.52 0.26-15.047 0.26-22.478 0-14.369-10.731-46.231-40.967-88.745-19.627-27.594-38.594-47.16-50.614-57.34-31.363 27.243-93.047 106.777-93.047 146.089-0.003 7.422-0.003 15.952 0.257 22.472zM512 26.81c-157.867 0-286.305 128.435-286.305 286.302s128.438 286.305 286.305 286.305 286.305-128.438 286.305-286.305-128.438-286.302-286.305-286.302z" />
<glyph unicode="&#xe915;" glyph-name="wedding-ring-21" d="M696.46 617.724c8.114 5.873 13.421 15.397 13.421 26.155v37.846c0 17.811-14.493 32.304-32.304 32.304h-20.957c3.433 11.952 5.301 24.513 5.301 37.487 0 48.212-42.48 108.603-60.746 132.332-9.788 12.716-60.088 76.152-89.177 76.152-31.576 0-81.215-63.519-90.848-76.252-17.764-23.485-59.075-83.38-59.075-132.232 0-12.974 1.868-25.535 5.301-37.487h-20.957c-17.811 0-32.304-14.493-32.304-32.304v-37.846c0-10.76 5.307-20.281 13.421-26.155-108.43-63.568-181.408-181.34-181.408-315.851 0-201.742 164.128-365.87 365.87-365.87s365.87 164.128 365.87 365.87c0 134.511-72.978 252.283-181.408 315.851zM511.999 24.102c-153.159 0-277.768 124.606-277.768 277.768s124.608 277.768 277.768 277.768 277.768-124.606 277.768-277.768-124.606-277.768-277.768-277.768z" />
<glyph unicode="&#xe916;" glyph-name="wedding-ring-22" d="M748.38 688.275v120.508c23.614 14.281 39.434 40.204 39.434 69.757 0 44.915-36.541 81.459-81.459 81.459-26.398 0-49.889-12.631-64.787-32.154-14.894 19.523-38.386 32.154-64.783 32.154s-49.889-12.631-64.783-32.154c-14.898 19.523-38.389 32.154-64.787 32.154s-49.889-12.631-64.787-32.154c-14.894 19.523-38.386 32.154-64.783 32.154-44.919 0-81.459-36.544-81.459-81.459 0-29.553 15.82-55.476 39.434-69.757v-120.512c-106.915-74.797-176.984-198.816-176.984-338.91 0-227.931 185.434-413.365 413.365-413.365s413.365 185.434 413.365 413.365c0 140.098-70.069 264.117-176.987 338.913zM512.002 35.539c-173.045 0-313.826 140.781-313.826 313.826s140.781 313.826 313.826 313.826 313.826-140.781 313.826-313.826-140.785-313.826-313.826-313.826z" />
<glyph unicode="&#xe917;" glyph-name="wedding-ring-23" d="M939.291 639.323c0 57.512-46.793 104.302-104.306 104.302-1.355 0-2.696-0.050-4.038-0.103-2.294 62.166-53.551 112.042-116.27 112.042-22.050 0-42.686-6.165-60.279-16.861-11.028 68.667-70.675 121.296-142.398 121.296s-131.369-52.629-142.401-121.293c-17.593 10.696-38.228 16.861-60.279 16.861-62.715 0-113.976-49.876-116.27-112.042-1.342 0.050-2.683 0.1-4.038 0.1-57.512 0-104.306-46.79-104.306-104.302 0-41.977 24.94-78.214 60.765-94.745-30.742-57.888-48.195-123.869-48.195-193.858 0-228.678 186.042-414.72 414.72-414.72s414.72 186.042 414.72 414.72c0 69.989-17.453 135.966-48.195 193.858 35.828 16.528 60.768 52.769 60.768 94.745zM512.002 35.865c-173.609 0-314.855 141.243-314.855 314.855s141.246 314.855 314.855 314.855 314.855-141.243 314.855-314.855-141.246-314.855-314.855-314.855z" />
<glyph unicode="&#xe918;" glyph-name="wedding-ring-24" d="M1024 448c0 37.417-19.976 71.106-50.959 89.449 21.876 28.601 27.805 67.314 13.812 102.014-14.831 36.789-48.644 61.459-87.627 64.693 11.884 36.302 3.107 77.586-25.188 105.881-19.589 19.586-45.637 30.372-73.343 30.372-8.781 0-17.491-1.111-25.92-3.27-4.715 35.738-27.901 67.349-62.389 82.017-12.964 5.514-26.626 8.309-40.613 8.309-24.816 0-48.534-8.965-67.033-24.532-17.27 34.076-52.699 57.066-92.74 57.066-37.431 0-71.131-19.994-89.47-50.998-17.949 13.688-40.169 21.414-63.166 21.414-13.319 0-26.385-2.546-38.827-7.563-37.165-14.984-61.423-49.575-64.679-87.655-10.446 3.437-21.443 5.237-32.517 5.237-27.72 0-53.778-10.794-73.382-30.394-26.438-26.442-36.1-64.388-27.124-99.28-36.142-4.758-67.456-28.185-81.996-62.371-15.669-36.838-8.383-78.427 16.202-107.66-34.062-17.274-57.042-52.696-57.042-92.729 0-37.417 19.976-71.106 50.959-89.449-21.876-28.601-27.805-67.314-13.812-102.014 14.831-36.785 48.644-61.455 87.624-64.693-11.888-36.306-3.11-77.586 25.188-105.885 19.589-19.586 45.633-30.372 73.343-30.372 8.781 0 17.491 1.111 25.92 3.27 4.715-35.734 27.901-67.346 62.389-82.017 12.964-5.514 26.626-8.309 40.613-8.309 24.816 0 48.534 8.965 67.037 24.532 17.27-34.079 52.696-57.066 92.74-57.066 37.431 0 71.131 19.994 89.47 50.995 17.949-13.688 40.169-21.414 63.166-21.414 13.319 0 26.385 2.546 38.827 7.563 37.165 14.984 61.423 49.571 64.679 87.655 10.446-3.437 21.443-5.237 32.517-5.237 27.72 0 53.778 10.794 73.382 30.394 26.438 26.442 36.1 64.388 27.124 99.28 36.135 4.761 67.456 28.185 81.996 62.371 15.669 36.838 8.383 78.427-16.202 107.66 34.058 17.285 57.042 52.703 57.042 92.736zM160.292 448c0 193.931 157.778 351.708 351.708 351.708s351.708-157.778 351.708-351.708-157.778-351.708-351.708-351.708-351.708 157.778-351.708 351.708z" />
<glyph unicode="&#xe919;" glyph-name="wedding-ring-25" d="M1024 486.282c0 73.719-57.904 140.004-163.046 186.644-93.929 41.665-217.856 64.611-348.952 64.611s-255.026-22.949-348.955-64.614c-105.142-46.639-163.046-112.922-163.046-186.641 0-64.004 43.672-122.394 123.987-167.199 0.379-1.122 0.801-2.233 1.299-3.314l22.848-49.638c5.854-12.717 20.586-24.56 34.266-27.542l71.205-15.522c2.791-0.607 5.805-0.917 8.951-0.917 0 0 0 0 0 0 12.188 0 25.402 4.593 33.668 11.699l21.978 18.895c10.423-1.996 20.991-3.829 31.695-5.495l52.146-69.163c8.428-11.181 25.344-19.612 39.345-19.612h141.219c14.001 0 30.917 8.431 39.345 19.612l52.146 69.163c10.704 1.666 21.272 3.5 31.692 5.495l21.978-18.895c8.266-7.106 21.483-11.699 33.668-11.699 3.147 0 6.157 0.309 8.954 0.917l71.205 15.522c13.68 2.985 28.41 14.822 34.266 27.542l22.851 49.641c0.497 1.082 0.917 2.189 1.296 3.314 80.319 44.8 123.99 103.19 123.99 167.197zM851.962 391.786l-4.295 3.693c-8.266 7.106-21.483 11.699-33.668 11.699-3.147 0-6.157-0.309-8.954-0.917l-71.205-15.522c-13.68-2.985-28.41-14.822-34.266-27.542l-11.664-25.341c-5.296-1.012-10.643-1.99-16.063-2.915l-49.893 66.176c-8.431 11.181-25.344 19.612-39.345 19.612h-141.219c-14.004 0-30.917-8.434-39.345-19.612l-49.893-66.176c-5.42 0.925-10.768 1.903-16.063 2.915l-11.664 25.341c-5.854 12.717-20.586 24.557-34.266 27.542l-71.205 15.522c-2.794 0.607-5.805 0.917-8.951 0.917-12.185 0-25.402-4.593-33.668-11.699l-4.295-3.693c-53.971 28.517-85.273 62.295-85.273 94.496 0 77.646 181.854 164.489 425.233 164.489s425.233-86.84 425.233-164.489c0.003-32.201-31.299-65.979-85.27-94.496z" />
<glyph unicode="&#xe91a;" glyph-name="wedding-ring-26" d="M896.483 534.992c-9.325 60.849-32.809 117.095-66.963 165.273 19.197 16.478 31.39 40.892 31.39 68.117 0 49.504-40.274 89.779-89.782 89.779-12.57 0-24.54-2.607-35.413-7.292-5.533 44.232-43.35 78.58-89.059 78.58-20.544 0-39.487-6.952-54.634-18.603-14.852 29.14-45.132 49.155-80.022 49.155s-65.171-20.015-80.022-49.155c-15.147 11.65-34.089 18.603-54.634 18.603-45.709 0-83.522-34.347-89.056-78.58-10.873 4.685-22.843 7.292-35.413 7.292-49.508 0-89.782-40.274-89.782-89.779 0-27.225 12.194-51.636 31.39-68.117-34.154-48.177-57.638-104.423-66.963-165.273-24.662-53.639-38.441-113.273-38.441-176.071 0-233.2 189.721-422.921 422.921-422.921s422.921 189.721 422.921 422.921c0 62.798-13.779 122.432-38.438 176.071zM512 37.84c-177.042 0-321.081 144.039-321.081 321.081s144.039 321.081 321.081 321.081 321.081-144.039 321.081-321.081-144.036-321.081-321.081-321.081z" />
<glyph unicode="&#xe91b;" glyph-name="wedding-ring-27" d="M767.578 529.714h46.779c23.404 0 42.378 18.974 42.378 42.378s-18.974 42.378-42.378 42.378h-10.736c3.317 10.727 5.125 22.073 5.125 33.826 0 35.775-23.486 73.799-43.191 99.398-45.036 58.512-71.206 58.512-79.806 58.512-5.458 0-17.671-0.023-36.295-13.018-11.479 37.985-39.019 76.777-52.562 94.369-9.312 12.095-57.167 72.443-84.891 72.443-30.091 0-77.319-60.428-86.482-72.542-13.259-17.527-40.298-56.382-51.328-94.762-18.779 13.482-30.667 13.507-35.939 13.507-9.029 0-36.507 0-80.975-58.8-15.697-20.748-42.027-61.216-42.027-99.107 0-11.753 1.808-23.099 5.125-33.826h-10.736c-23.404 0-42.378-18.974-42.378-42.378s18.974-42.378 42.378-42.378h46.779c-59.716-63.1-96.392-148.215-96.392-241.742 0-194.078 157.894-351.972 351.972-351.972s351.972 157.894 351.972 351.972c0.003 93.528-36.676 178.644-96.392 241.742zM723.994 648.295c0-18.652-17.154-33.826-38.242-33.826s-38.242 15.174-38.242 33.826c0 12.939 20.601 44.968 37.603 63.626 17.056-18.697 38.663-50.381 38.88-63.626zM337.609 711.918c17.058-18.694 38.665-50.379 38.883-63.626 0-18.652-17.154-33.826-38.242-33.826s-38.242 15.174-38.242 33.826c-0.003 12.942 20.598 44.974 37.6 63.626zM512.001 20.755c-147.342 0-267.217 119.875-267.217 267.217s119.875 267.217 267.217 267.217 267.217-119.875 267.217-267.217-119.875-267.217-267.217-267.217z" />
<glyph unicode="&#xe91c;" glyph-name="wedding-ring-28" d="M805.182 960h-69.39c-61.33 0-79.65-18.32-79.65-79.65v-493.962c0-4.83 0.13-9.363 0.367-13.669-8.794 1.532-18.991 2.222-30.796 2.222h-40.010c5.979 20.189 9.241 41.534 9.241 63.635 0 92.712-56.497 172.473-136.871 206.678l32.232 42.558c5.247 6.923 5.838 16.989 1.438 24.486l-41.76 71.099c-4.002 6.812-12.316 11.568-20.216 11.568h-120.883c-8.030 0-16.363-4.902-20.266-11.924l-39.74-71.532c-4.116-7.411-3.475-17.346 1.554-24.163l31.382-42.555c-79.824-34.445-135.852-113.9-135.852-206.217 0-22.101 3.263-43.447 9.241-63.635h-23.449c-61.33 0-79.65-18.32-79.65-79.65v-247.779c0-61.33 50.179-111.509 111.509-111.509h430.244c61.33 0 111.509 50.179 111.509 111.509v247.779c0 4.83-0.127 9.363-0.367 13.669 8.794-1.532 18.991-2.222 30.796-2.222h69.39c61.33 0 166.715 68.201 166.715 166.715v319.835c-0.003 109.268-105.387 166.715-166.718 166.715zM228.763 438.574c0 78.127 63.561 141.687 141.687 141.687s141.687-63.561 141.687-141.687c0-22.877-5.485-44.487-15.154-63.635h-253.064c-9.672 19.148-15.157 40.758-15.157 63.635z" />
<glyph unicode="&#xe91d;" glyph-name="wedding-ring-29" d="M832.212 487.77c6.941 2.415 13.096 6.102 18.183 11.191 30.438 30.438 11.869 98.35-41.47 151.689s-121.255 71.908-151.692 41.47c-3.76-3.76-6.764-8.096-9.055-12.901-3.047 23.84-24.869 44.692-57.086 57.777l56.049 74.006c5.813 7.675 4.971 18.96-1.919 25.692l-118.494 115.747c-1.817 1.774-8.337 7.557-16.009 7.557-7.774 0-14.281-5.92-16.084-7.731l-116.029-116.289c-6.791-6.812-7.605-17.786-1.897-25.52l54.639-74.095c-31.362-13.12-52.522-33.688-55.521-57.142-2.291 4.805-5.295 9.141-9.055 12.901-30.438 30.435-98.35 11.869-151.692-41.47-53.339-53.339-71.908-121.255-41.47-151.689 5.089-5.089 11.245-8.776 18.183-11.191-30.936-53.945-48.639-116.401-48.639-182.92 0-203.386 165.466-368.853 368.853-368.853s368.853 165.466 368.853 368.853c-0.005 66.516-17.708 128.972-48.644 182.918zM642.638 649.782c-0.137 0.051-0.273 0.105-0.41 0.155 0.137 0.249 0.273 0.498 0.407 0.748 0.005-0.303-0.005-0.6 0.003-0.903zM381.772 649.938c-0.137-0.051-0.273-0.105-0.41-0.155 0.008 0.306-0.003 0.6 0.003 0.903 0.134-0.249 0.268-0.498 0.407-0.748zM512.001 16.395c-159.056 0-288.457 129.401-288.457 288.457s129.401 288.457 288.457 288.457 288.457-129.401 288.457-288.457-129.404-288.457-288.457-288.457z" />
<glyph unicode="&#xe91e;" glyph-name="wedding-ring-30" d="M876.823 504.362c-17.539 114.435-87.842 211.705-185.193 266.177l33.38 44.074c6.51 8.6 6.523 21.092 0.042 29.689l-78.382 104.128c-5.205 6.922-14.527 11.57-23.189 11.57h-227.063c-8.823 0-18.186-4.832-23.301-12.024l-74.568-104.949c-6.078-8.549-5.969-20.882 0.258-29.325l32.336-43.852c-96.716-54.6-166.498-151.536-183.962-265.491-23.398-50.893-36.472-107.478-36.472-167.068 0-221.275 180.020-401.295 401.295-401.295s401.295 180.020 401.295 401.295c-0.003 59.59-13.078 116.175-36.475 167.071zM512 32.632c-167.992 0-304.662 136.674-304.662 304.662s136.67 304.662 304.662 304.662c167.989 0 304.662-136.674 304.662-304.662s-136.674-304.662-304.662-304.662z" />
<glyph unicode="&#xe91f;" glyph-name="wedding-ring-31" d="M771.4 511.86c44.431 21.419 75.166 66.915 75.166 119.453 0 73.070-59.448 132.518-132.518 132.518-19.305 0-37.637-4.183-54.195-11.636l32.404 59.729c3.765 6.944 3.601 16.547-0.398 23.354l-66.418 113.065c-4.032 6.861-12.409 11.655-20.368 11.655h-189.58c-8.090 0-16.485-4.939-20.418-12.014l-63.214-113.783c-3.743-6.733-3.849-16.196-0.253-23.024l30.652-58.127c-16.057 6.927-33.739 10.782-52.31 10.782-73.070 0-132.518-59.448-132.518-132.518 0-52.538 30.732-98.031 75.166-119.453-54.14-61.15-87.063-141.495-87.063-229.398 0-191.040 155.422-346.462 346.462-346.462s346.462 155.422 346.462 346.462c0 87.9-32.921 168.245-87.061 229.395zM714.046 680.403c27.067 0 49.089-22.022 49.089-49.089s-22.022-49.089-49.089-49.089-49.089 22.022-49.089 49.089 22.022 49.089 49.089 49.089zM309.954 680.403c27.067 0 49.089-22.022 49.089-49.089s-22.020-49.089-49.089-49.089-49.089 22.022-49.089 49.089 22.020 49.089 49.089 49.089zM511.999 19.429c-145.038 0-263.034 117.999-263.034 263.034s117.996 263.034 263.034 263.034 263.034-117.999 263.034-263.034-117.996-263.034-263.034-263.034z" />
<glyph unicode="&#xe920;" glyph-name="wedding-ring-32" d="M669.347 615.138l59.836 84.973c13.7 19.453 9.033 46.331-10.42 60.028-7.522 5.296-16.153 7.818-24.703 7.829l20.565 36.985c5.158 9.271 2.312 21.185-6.48 27.116l-181.038 122.259c-4.182 2.823-11.075 5.673-17.043 5.673-6.457 0-13.281-3.151-17.161-5.845l-177.235-123.092c-8.562-5.942-11.388-17.781-6.431-26.958l19.534-36.14c-8.163-0.236-16.351-2.772-23.529-7.824-19.453-13.7-24.12-40.575-10.42-60.028l59.833-84.973c-118.629-58.331-200.476-180.437-200.476-321.316 0-197.305 160.519-357.824 357.824-357.824 197.303 0 357.821 160.519 357.821 357.824 0 140.879-81.848 262.986-200.476 321.313zM512.001 22.165c-149.794 0-271.66 121.868-271.66 271.66s121.865 271.66 271.66 271.66c149.791 0 271.657-121.868 271.657-271.66s-121.865-271.66-271.657-271.66z" />
<glyph unicode="&#xe921;" glyph-name="wedding-ring-33" d="M648.104 612.439l105.015 134.217c12.906 16.496 14.078 40.365 2.853 58.043l-83.109 130.878c-9.423 14.836-26.869 24.423-44.444 24.423h-237.086c-18.011 0-35.628-9.98-44.885-25.408l-79.095-131.774c-10.587-17.624-9.333-40.459 3.135-56.839l102.659-134.72c-125.198-53.969-213.064-178.58-213.064-323.342 0-194.048 157.869-351.917 351.917-351.917s351.917 157.869 351.917 351.917c0 145.821-89.154 271.203-215.813 324.522zM570.963 651.367h-121.836l-62.802 82.417h249.122l-64.483-82.417zM409.671 875.258h201.11l36.027-56.732h-271.189l34.052 56.732zM512 20.742c-147.318 0-267.175 119.853-267.175 267.175s119.856 267.175 267.175 267.175 267.175-119.853 267.175-267.175-119.856-267.175-267.175-267.175z" />
<glyph unicode="&#xe922;" glyph-name="wedding-ring-34" d="M927.83 13.762l-91.445 496.833c-0.768 4.172-1.919 8.205-3.356 12.106 2.639 3.762 4.979 7.7 6.89 11.818l77.92 168.002c6.887 14.855 8.14 30.419 3.892 44.481-3.158 57.871-46.77 111.339-123.642 151.176-76.92 39.869-178.88 61.823-287.097 61.823-108.214 0-210.174-21.954-287.097-61.817-79.864-41.387-123.848-97.483-123.848-157.948v-4.939c-0.915-10.731 1.092-21.94 6.116-32.776l77.917-168.002c1.911-4.121 4.254-8.056 6.893-11.818-1.44-3.904-2.588-7.94-3.356-12.112l-91.448-496.827c-3.621-19.676 1.406-39.49 13.788-54.363 12.385-14.872 30.961-23.399 50.97-23.399h702.155c20.009 0 38.587 8.527 50.97 23.402 12.38 14.872 17.407 34.686 13.78 54.36zM824.998 703.604l-60.626-130.716c-0.988 0.040-1.967 0.135-2.961 0.135h-498.82c-0.996 0-1.973-0.096-2.964-0.135l-60.623 130.716h625.993zM183.54 20.677l85.354 463.716h486.214l85.351-463.716h-656.92zM737.922 139.586c-10.816 80.635-64.052 147.993-136.434 178.902l32.256 42.59c5.896 7.776 5.51 19.193-0.9 26.555l-40.478 46.485c-4.745 5.442-12.775 9.097-19.992 9.097h-122.121c-7.373 0-15.465-3.827-20.136-9.521l-38.452-46.843c-6.111-7.449-6.396-18.482-0.677-26.233l31.395-42.573c-72.96-31.584-126.259-100.286-135.867-182.174-1.027-8.753 3.61-26.682 17.017-26.682h51.512c12.702 0 15.335 16.766 16.755 24.833 11.787 66.954 70.375 117.983 140.654 117.983 69.362 0 127.334-49.702 140.168-115.364 1.736-8.885 6.554-27.452 16.433-27.452h51.512c17.424-0.003 18.691 20.449 17.356 30.396z" />
<glyph unicode="&#xe923;" glyph-name="wedding-ring-35" d="M672.428 614.927l57.132 81.133c13.724 19.487 9.049 46.412-10.438 60.133-12.852 9.049-28.918 10.050-42.317 4.129l26.519 41.733c4.601 7.23 4.782 17.441 0.44 24.827l-71.109 121.054c-4.172 7.101-12.838 12.064-21.075 12.064h-202.82c-8.375 0-17.062-5.11-21.124-12.429l-67.682-121.831c-4.060-7.302-3.827-17.369 0.567-24.479l24.795-40.116c-12.999 5.021-28.182 3.674-40.433-4.952-19.487-13.724-24.162-40.646-10.438-60.133l57.132-81.133c-117.319-58.967-198.021-180.467-198.021-320.479 0-197.65 160.799-358.449 358.449-358.449s358.449 160.799 358.449 358.449c-0.003 140.011-80.704 261.511-198.024 320.479zM512 22.315c-150.056 0-272.134 122.081-272.134 272.134s122.078 272.134 272.134 272.134 272.134-122.081 272.134-272.134-122.078-272.134-272.134-272.134z" />
<glyph unicode="&#xe924;" glyph-name="wedding-ring-36" d="M808.173 477.801c0.345 2.178 0.576 4.395 0.576 6.672v75.644c16.468 12.714 27.103 32.634 27.103 55 0 38.309-31.165 69.474-69.474 69.474s-69.474-31.165-69.474-69.474c0-12.098 3.116-23.479 8.573-33.394-18.039 11.92-37.227 22.236-57.373 30.719l105.015 134.217c12.906 16.496 14.078 40.365 2.853 58.043l-83.109 130.876c-9.423 14.836-26.869 24.423-44.444 24.423h-237.086c-18.013 0-35.637-9.983-44.885-25.408l-79.098-131.779c-10.579-17.621-9.324-40.453 3.141-56.831l102.656-134.723c-19.143-8.254-37.408-18.16-54.625-29.535 5.46 9.918 8.573 21.298 8.573 33.394 0 38.309-31.165 69.474-69.474 69.474s-69.474-31.165-69.474-69.474c0-22.366 10.635-42.286 27.103-55v-75.644c0-2.277 0.232-4.494 0.576-6.672-35.264-54.814-55.743-120-55.743-189.884 0-194.048 157.869-351.917 351.917-351.917s351.917 157.869 351.917 351.917c0 69.884-20.479 135.070-55.743 189.884zM409.671 875.258h201.11l60.641-95.499-100.459-128.395h-16.592v83.7c0 23.4-18.971 42.371-42.371 42.371s-42.371-18.971-42.371-42.371v-83.7h-20.502l-97.244 127.619 57.788 96.275zM512 20.742c-147.318 0-267.175 119.856-267.175 267.175s119.856 267.175 267.175 267.175 267.175-119.856 267.175-267.175-119.856-267.175-267.175-267.175z" />
<glyph unicode="&#xe925;" glyph-name="wedding-ring-37" d="M620.369 484.572l54.419 71.853c5.068 6.693 5.639 16.421 1.387 23.658l-57.665 98.173c-3.868 6.581-11.9 11.177-19.536 11.177h-165.022c-7.762 0-15.818-4.737-19.584-11.523l-54.883-98.786c-3.98-7.162-3.364-16.765 1.499-23.354l52.957-71.816c-105.204-41.583-179.824-144.293-179.824-264.107 0-156.515 127.333-283.846 283.846-283.846 156.515 0 283.849 127.331 283.849 283.846 0 120.425-75.388 223.559-181.443 264.726zM517.963 16.024c-112.388 0-203.823 91.435-203.823 203.823s91.435 203.823 203.823 203.823 203.825-91.435 203.825-203.823-91.435-203.823-203.825-203.823zM510.529 792.167c21.118 0 38.299 17.181 38.299 38.299v91.235c0 21.118-17.181 38.299-38.299 38.299s-38.302-17.181-38.302-38.299v-91.232c0-21.121 17.181-38.302 38.302-38.302zM256.91 537.078c0 21.118-17.181 38.299-38.302 38.299h-91.23c-21.118 0-38.302-17.181-38.302-38.299 0-21.121 17.181-38.302 38.302-38.302h91.232c21.118 0 38.299 17.181 38.299 38.302zM896.621 575.38h-91.235c-21.118 0-38.302-17.181-38.302-38.299 0-21.121 17.181-38.302 38.302-38.302h91.235c21.118 0 38.302 17.181 38.302 38.302 0 21.116-17.184 38.299-38.302 38.299zM275.991 714.17c7.237-7.237 16.856-11.222 27.085-11.222 10.227 0 19.843 3.985 27.083 11.222 14.927 14.938 14.927 39.23 0 54.16l-64.52 64.534c-7.234 7.223-16.853 11.203-27.085 11.203-10.23 0-19.849-3.98-27.096-11.211-14.911-14.932-14.914-39.233 0.005-54.179l64.528-64.507zM717.963 702.948c10.227 0 19.843 3.985 27.080 11.219l64.528 64.512c7.234 7.237 11.222 16.856 11.222 27.088 0 10.235-3.988 19.854-11.222 27.075-7.234 7.234-16.853 11.217-27.088 11.217s-19.854-3.983-27.093-11.217l-64.515-64.52c-14.906-14.927-14.908-39.22 0.003-54.157 7.239-7.231 16.858-11.217 27.085-11.217z" />
<glyph unicode="&#xe926;" glyph-name="wedding-ring-38" d="M797.372 504.638c25.155 14.242 42.184 41.238 42.184 72.152 0 45.693-37.175 82.871-82.871 82.871-5.032 0-9.956-0.477-14.742-1.34-5.498 34.883-32.837 62.582-67.525 68.657 9.522 21.829 16.237 45.076 16.237 67.268-0.003 91.398-77.555 165.755-172.879 165.755s-172.877-74.358-172.877-165.753c0-22.029 6.924-45.276 16.734-67.179-34.929-5.895-62.502-33.697-68.025-68.745-4.789 0.863-9.71 1.34-14.742 1.34-45.696 0-82.871-37.177-82.871-82.871 0-27.622 13.596-52.114 34.437-67.182-46.639-60.213-74.443-135.713-74.443-217.598 0-196.306 159.706-356.012 356.012-356.012s356.012 159.706 356.012 356.012c0 79.641-26.29 153.256-70.64 212.626zM517.775 874.272c48.053 0 87.148-35.9 87.148-80.024 0-13.565-10.127-43.644-38.675-83.779-18.529-26.050-36.434-44.521-47.782-54.132-29.608 25.718-87.84 100.802-87.84 137.914 0 44.121 39.095 80.022 87.148 80.022zM512 21.728c-149.036 0-270.284 121.251-270.284 270.284s121.248 270.284 270.284 270.284 270.284-121.251 270.284-270.284-121.248-270.284-270.284-270.284z" />
<glyph unicode="&#xe927;" glyph-name="wedding-ring-39" d="M711.162 578.117c17.024 14.735 27.826 36.475 27.826 60.702 0 44.274-36.020 80.294-80.294 80.294-9.904 0-19.392-1.814-28.157-5.109l68.316 90.203c5.366 7.089 5.97 17.391 1.469 25.063l-69.839 118.891c-4.097 6.973-12.608 11.839-20.692 11.839h-199.182c-8.222 0-16.756-5.021-20.748-12.209l-66.468-119.648c-4.207-7.581-3.56-17.747 1.588-24.735l65.047-88.208c-7.793 2.529-16.1 3.913-24.724 3.913-44.274 0-80.294-36.020-80.294-80.294 0-24.229 10.802-45.969 27.826-60.702-92.252-63.533-152.857-169.861-152.857-290.097 0-194.105 157.915-352.020 352.020-352.020s352.020 157.915 352.020 352.020c0 120.233-60.605 226.565-152.857 290.097zM512 20.767c-147.361 0-267.253 119.891-267.253 267.253s119.891 267.253 267.253 267.253 267.253-119.891 267.253-267.253-119.891-267.253-267.253-267.253z" />
<glyph unicode="&#xe928;" glyph-name="wedding-ring-40" d="M867.983 490.593c-8.329 54.346-28.866 104.72-58.69 148.251 21.263 15.071 35.18 39.854 35.18 67.839 0 45.835-37.289 83.124-83.127 83.124-30.425 0-57.068-16.438-71.558-40.894-19.842 11.312-40.847 20.798-62.804 28.215 8.078 16.734 12.607 35.485 12.607 55.277 0.003 70.357-57.235 127.595-127.592 127.595s-127.595-57.238-127.595-127.595c0-19.792 4.529-38.543 12.607-55.277-21.954-7.418-42.962-16.903-62.804-28.215-14.486 24.453-41.133 40.894-71.558 40.894-45.838 0-83.127-37.289-83.127-83.124 0-27.986 13.917-52.769 35.18-67.839-29.824-43.534-50.361-93.905-58.69-148.251-22.831-49.66-35.589-104.874-35.589-163.017 0-215.914 175.658-391.573 391.573-391.573s391.573 175.658 391.573 391.573c0.003 58.14-12.751 113.357-35.586 163.017zM511.998 30.291c-163.919 0-297.282 133.362-297.282 297.282s133.362 297.282 297.282 297.282 297.282-133.362 297.282-297.282-133.359-297.282-297.282-297.282z" />
<glyph unicode="&#xe929;" glyph-name="wedding-ring-41" d="M866.187 447.866c0 0.276-0.009 0.544-0.009 0.823v1.686l-0.371 1.644c-1.543 6.866-37.978 168.668-55.832 217.612-18.595 50.971-56.105 76.818-111.484 76.818h-56.418l43.337 77.939c5.453 9.8 2.446 22.396-6.854 28.681l-149.453 100.924c-1.486 1.006-9.281 6.006-17.101 6.006-7.92 0-15.731-5.149-17.213-6.179l-146.299-101.608c-9.056-6.286-12.046-18.808-6.802-28.514l41.757-77.252h-55.883c-60.604 0-92.934-22.344-111.593-77.128-15.573-45.718-43.577-168.498-52.074-206.32-19.54-45.624-30.377-95.829-30.377-148.523 0-208.693 169.786-378.479 378.482-378.479s378.482 169.786 378.482 378.479c0 46.933-8.61 91.883-24.295 133.391zM512 27.139c-158.442 0-287.343 128.901-287.343 287.34s128.901 287.343 287.343 287.343 287.343-128.904 287.343-287.343-128.901-287.34-287.343-287.34z" />
<glyph unicode="&#xe92a;" glyph-name="wedding-ring-42" d="M872.715 457.305c0 0.278-0.009 0.554-0.009 0.832v1.717l-0.377 1.674c-1.569 6.992-38.674 171.776-56.861 221.625-18.938 51.91-57.139 78.234-113.539 78.234h-63.909l38.068 59.905c4.935 7.769 5.127 18.74 0.464 26.688l-58.194 99.056c-4.486 7.636-13.805 12.964-22.654 12.964h-167.166c-9 0-18.344-5.495-22.719-13.366l-55.366-99.662c-4.372-7.856-4.121-18.684 0.606-26.329l36.629-59.255h-63.528c-61.718 0-94.647-22.756-113.65-78.549-15.856-46.558-44.376-171.596-53.030-210.122-19.9-46.465-30.939-97.595-30.939-151.26 0-212.542 172.914-385.456 385.456-385.456s385.456 172.914 385.456 385.456c0 47.795-8.768 93.576-24.739 135.849zM511.998 28.818c-161.359 0-292.638 131.279-292.638 292.638s131.279 292.638 292.638 292.638 292.638-131.279 292.638-292.638-131.276-292.638-292.638-292.638z" />
<glyph unicode="&#xe92b;" glyph-name="wedding-ring-43" d="M873.447 458.362c0 0.279-0.009 0.555-0.009 0.834v1.721l-0.378 1.677c-1.572 7.007-38.753 172.124-56.976 222.075-17.305 47.433-50.707 73.469-99.303 77.704v22.399c28.231 16.189 47.306 46.609 47.306 81.418-0.003 51.727-42.086 93.81-93.813 93.81-34.23 0-64.221-18.437-80.606-45.893-16.385 27.456-46.376 45.893-80.606 45.893s-64.221-18.437-80.606-45.893c-16.385 27.456-46.376 45.893-80.606 45.893-51.724 0-93.81-42.082-93.81-93.81 0-34.812 19.076-65.232 47.306-81.418v-22.87c-47.65-5.255-74.852-28.829-91.447-77.549-15.889-46.652-44.466-171.944-53.138-210.548-19.941-46.559-31.002-97.793-31.002-151.567 0-212.973 173.265-386.238 386.238-386.238s386.238 173.265 386.238 386.238c0 47.892-8.786 93.766-24.789 136.125zM428.457 818.273c8.287-13.886 20.062-25.45 34.102-33.504v-21.711h-68.205v21.711c14.041 8.054 25.816 19.618 34.102 33.504zM623.771 784.772v-21.711h-68.205v21.711c14.041 8.051 25.816 19.615 34.102 33.504 8.287-13.889 20.062-25.453 34.102-33.504zM511.998 29.007c-161.686 0-293.231 131.545-293.231 293.231s131.545 293.231 293.231 293.231 293.231-131.545 293.231-293.231-131.542-293.231-293.231-293.231z" />
<glyph unicode="&#xe92c;" glyph-name="wedding-ring-44" d="M844.026 415.842c0 0.256-0.009 0.51-0.009 0.766v1.581l-0.347 1.541c-1.444 6.436-35.598 158.114-52.338 203.999-17.432 47.782-52.595 72.011-104.509 72.011h-59.743c26.895 23.723 56.080 52.304 69.098 72.094 12.206 18.565 25.964 44.655 23.971 81.936-3.312 61.81-53.144 110.23-113.451 110.23-43.894 0-74.745-33.656-91.32-51.74-0.476-0.521-0.968-1.059-1.47-1.603-0.048 0.057-0.097 0.108-0.142 0.165-15.156 17.261-46.691 53.178-93.416 53.178-60.307 0-110.136-48.42-113.445-110.233-1.558-29.145 5.838-54.417 23.976-81.942 12.929-19.619 42.348-48.272 69.474-72.085h-61.252c-56.809 0-87.117-20.946-104.611-72.302-14.598-42.855-40.847-157.946-48.815-193.408-18.318-42.772-28.479-89.836-28.479-139.233 0-195.638 159.162-354.8 354.8-354.8s354.8 159.162 354.8 354.8c0.003 43.997-8.068 86.134-22.772 125.045zM512 21.436c-148.528 0-269.364 120.838-269.364 269.364s120.835 269.364 269.364 269.364c148.525 0 269.364-120.838 269.364-269.364s-120.835-269.364-269.364-269.364z" />
<glyph unicode="&#xe92d;" glyph-name="wedding-ring-45" d="M865.621 447.049c0 0.276-0.009 0.543-0.009 0.819v1.683l-0.37 1.641c-1.541 6.855-37.917 168.397-55.742 217.267-13.785 37.786-38.005 61.711-72.188 71.545 2.126 7.783 3.285 15.96 3.285 24.41 0 51.126-41.593 92.719-92.719 92.719-7.107 0-14.019-0.831-20.671-2.351-4.477 58.763-53.692 105.218-113.583 105.218s-109.106-46.455-113.583-105.221c-6.652 1.52-13.564 2.351-20.671 2.351-51.126 0-92.719-41.593-92.719-92.719 0-7.986 1.016-15.736 2.921-23.133-36.673-8.471-58.894-31.338-73.128-73.128-15.548-45.642-43.504-168.218-51.99-205.987-19.509-45.554-30.331-95.679-30.331-148.288 0-208.361 169.514-377.875 377.875-377.875s377.875 169.514 377.875 377.875c0.003 46.855-8.596 91.733-24.253 133.174zM512.002 26.993c-158.188 0-286.882 128.697-286.882 286.882s128.694 286.882 286.882 286.882 286.882-128.697 286.882-286.882-128.697-286.882-286.882-286.882z" />
<glyph unicode="&#xe92e;" glyph-name="wedding-rings" d="M705.678 766.323c-60.726 0-117.526-17.101-165.86-46.728-0.217-0.046-0.436-0.078-0.655-0.127-4.041 24.451-20.271 45.88-44.044 55.992-9.223 3.923-18.949 5.912-28.905 5.912-16.74 0-32.782-5.736-45.623-15.77-12.699 22.941-37.187 38.244-64.745 38.244-25.805 0-49.121-13.354-62.421-34.249-12.416 8.851-27.468 13.813-43.016 13.813-9.48 0-18.778-1.81-27.632-5.381-25.577-10.314-42.566-33.671-45.753-59.71-6.66 1.928-13.594 2.933-20.577 2.933-19.728 0-38.273-7.682-52.222-21.631-18.227-18.227-25.251-44.139-19.864-68.316-24.708-4.076-45.949-20.459-55.975-44.035-10.782-25.355-6.29-53.87 9.844-74.534-22.938-12.702-38.232-37.185-38.232-64.739 0-25.796 13.343-49.101 34.22-62.401-14.391-20.144-18.048-46.746-8.403-70.671 10.216-25.334 33.082-42.594 59.69-45.767-7.24-25.196-0.756-53.31 18.718-72.784 13.94-13.94 32.476-21.616 52.199-21.616 5.439 0 10.84 0.598 16.105 1.77 4.041-24.448 20.271-45.88 44.044-55.992 9.223-3.923 18.949-5.912 28.905-5.912 16.74 0 32.782 5.733 45.623 15.77 12.699-22.941 37.187-38.244 64.745-38.244 25.805 0 49.121 13.354 62.418 34.249 12.416-8.848 27.468-13.81 43.016-13.81 9.48 0 18.778 1.81 27.632 5.381 25.574 10.312 42.563 33.671 45.753 59.71 1.712-0.497 3.441-0.927 5.182-1.296 48.325-29.613 105.116-46.705 165.828-46.705 175.525 0 318.325 142.8 318.325 318.325s-142.797 318.319-318.319 318.319zM533.883 292.673c-37.219 41.128-59.924 95.622-59.924 155.326s22.704 114.201 59.924 155.326c36.324-41.581 58.402-95.907 58.402-155.326s-22.081-113.745-58.402-155.326zM465.923 238.84c-32.901-17.384-70.345-27.28-110.076-27.28-130.375 0-236.441 106.066-236.441 236.441s106.066 236.441 236.441 236.441c39.728 0 77.175-9.893 110.076-27.28-48.899-55.98-78.566-129.169-78.566-209.161s29.667-153.184 78.566-209.161zM705.678 216.28c-27.716 0-54.303 4.905-78.959 13.868 2.895 11.238 3.167 23.083 0.615 34.546 24.711 4.073 45.946 20.459 55.975 44.035 10.782 25.355 6.29 53.87-9.844 74.534 22.935 12.702 38.23 37.182 38.23 64.736 0 25.793-13.343 49.098-34.22 62.401 14.391 20.144 18.051 46.746 8.403 70.668-10.216 25.337-33.082 42.597-59.69 45.767 3.666 12.757 3.799 26.258 0.523 39.009 24.659 8.966 51.249 13.871 78.968 13.871 127.772 0 231.721-103.95 231.721-231.721s-103.953-231.713-231.721-231.713z" />
<glyph unicode="&#xe92f;" glyph-name="wedding-rings-1" d="M699.385 735.052c-69.742 0-134.417-22.114-187.386-59.69-25.989 18.435-54.804 33.134-85.645 43.339 0.636 4.031 0.972 8.156 0.972 12.362 0 43.625-35.491 79.116-79.116 79.116h-47.192c-43.625 0-79.116-35.491-79.116-79.116 0-4.206 0.336-8.334 0.972-12.362-129.306-42.784-222.872-164.795-222.872-308.265 0-178.994 145.621-324.618 324.615-324.618 69.742 0 134.417 22.114 187.386 59.69 52.969-37.576 117.644-59.69 187.386-59.69 178.994 0 324.615 145.624 324.615 324.618s-145.624 324.615-324.618 324.615zM512.001 258.536c-33.712 41.51-53.952 94.382-53.952 151.9 0 57.516 20.237 110.391 53.952 151.898 33.712-41.51 53.952-94.382 53.952-151.898-0.003-57.519-20.24-110.391-53.952-151.9zM83.28 410.436c0 133.074 108.262 241.335 241.335 241.335 45.554 0 88.197-12.692 124.587-34.717-46.473-56.173-74.433-128.191-74.433-206.618s27.96-150.449 74.433-206.618c-36.391-22.025-79.036-34.717-124.587-34.717-133.074-0.003-241.335 108.262-241.335 241.335zM699.385 169.099c-45.554 0-88.197 12.692-124.587 34.717 46.473 56.173 74.433 128.191 74.433 206.618s-27.96 150.446-74.433 206.618c36.391 22.025 79.033 34.717 124.587 34.717 133.074 0 241.335-108.264 241.335-241.335s-108.262-241.335-241.335-241.335z" />
<glyph unicode="&#xe930;" glyph-name="weddin-ring" d="M772.983 666.349c0.486 0.46 1.032 0.899 1.498 1.365 45.114 45.118 43.289 120.349-4.067 167.705-23.736 23.736-54.838 36.806-87.584 36.806-11.529 0-22.754-1.66-33.403-4.857-19.987 53.896-74.028 92.632-137.429 92.632-63.398 0-117.439-38.736-137.426-92.629-10.65 3.197-21.878 4.857-33.403 4.857-32.745 0-63.851-13.073-87.584-36.806-47.356-47.356-49.181-122.587-4.063-167.705 0.466-0.466 1.012-0.906 1.498-1.365-92.083-75.605-150.929-190.277-150.929-318.438 0-227.129 184.782-411.91 411.91-411.91s411.907 184.778 411.907 411.907c0 128.165-58.842 242.834-150.925 318.438zM511.998 35.189c-172.436 0-312.722 140.286-312.722 312.722 0 172.433 140.286 312.719 312.722 312.719s312.722-140.286 312.722-312.719c0-172.436-140.286-312.722-312.722-312.722z" />
<glyph unicode="&#xe931;" glyph-name="weding-ring" d="M860.954 673.88c-93.929 41.665-217.856 64.611-348.952 64.611s-255.026-22.947-348.952-64.611c-105.145-46.642-163.049-112.925-163.049-186.644s57.904-140.004 163.046-186.644c15.907-7.054 32.69-13.561 50.205-19.522 5.631-45.381 51.206-80.871 106.418-80.871 24.638 0 47.342 7.086 65.45 18.944 28.277-37.017 77.805-61.635 134.11-61.635 53.337 0 100.593 22.093 129.468 55.888 16.222-8.37 35.27-13.2 55.631-13.2 55.214 0 100.786 35.49 106.418 80.871 17.515 5.961 34.298 12.465 50.205 19.522 105.142 46.639 163.046 112.922 163.046 186.644s-57.901 140.004-163.043 186.646zM772.554 360.103c-18.533 12.983-42.318 20.801-68.226 20.801-20.361 0-39.412-4.83-55.634-13.2-28.875 33.795-76.128 55.888-129.465 55.888-56.305 0-105.833-24.615-134.11-61.632-18.108 11.861-40.811 18.947-65.45 18.947-25.908 0-49.69-7.818-68.226-20.801-101.579 32.485-164.677 81.4-164.677 127.131 0 77.646 181.854 164.489 425.233 164.489s425.233-86.843 425.233-164.489c0.003-45.731-63.099-94.646-164.677-127.134z" />
</font>
</defs>
</svg>
